<svg id="a32d0f25-4593-42a3-87b6-844709092829" data-name="Livello 1" xmlns="http://www.w3.org/2000/svg" xmlns:xlink="http://www.w3.org/1999/xlink" viewBox="0 0 512 512"><defs><clipPath id="a6b9e61a-e5e1-4241-ac43-46ebdb66be1b"><path d="M266.13,379.08,505.77,152.25a13.05,13.05,0,0,0,0-19.24,14.89,14.89,0,0,0-20.34,0L256,350.16,26.59,133a14.88,14.88,0,0,0-20.33,0A13.32,13.32,0,0,0,2,142.58a12.92,12.92,0,0,0,4.26,9.57L245.9,379A14.88,14.88,0,0,0,266.13,379.08Z" style="fill:none;clip-rule:evenodd"/></clipPath><clipPath id="e9ce6744-e93b-4e29-a11b-2f4b5b040471"><rect width="512" height="512" style="fill:none"/></clipPath></defs><title>Tavola disegno 1 copia 4</title><g style="clip-path:url(#a6b9e61a-e5e1-4241-ac43-46ebdb66be1b)"><g style="clip-path:url(#e9ce6744-e93b-4e29-a11b-2f4b5b040471)"><rect x="-3" y="124" width="518" height="264" style="fill:#fff"/></g></g><path d="M256.07,382.5a14,14,0,0,1-9.82-3.88L6.6,151.79a12.51,12.51,0,0,1-4.1-9.21,12.83,12.83,0,0,1,4.1-9.21,14.41,14.41,0,0,1,19.65,0L256,350.85,485.78,133.37a14.39,14.39,0,0,1,19.64,0,12.55,12.55,0,0,1,0,18.52L265.78,378.72a14,14,0,0,1-9.71,3.78Z"/><path d="M495.6,130a13.74,13.74,0,0,1,9.48,3.73,12.06,12.06,0,0,1,0,17.8L265.44,378.36a13.88,13.88,0,0,1-18.85-.1L6.93,151.41A12,12,0,0,1,3,142.58a12.32,12.32,0,0,1,4-8.85,13.9,13.9,0,0,1,19,0L255.33,350.89l.68.65.69-.65L486.12,133.73A13.74,13.74,0,0,1,495.6,130m0-1a14.79,14.79,0,0,0-10.17,4L256,350.16,26.59,133a14.89,14.89,0,0,0-20.33,0A13.32,13.32,0,0,0,2,142.58a12.92,12.92,0,0,0,4.26,9.57L245.9,379a14.87,14.87,0,0,0,20.23.1L505.77,152.25a13.05,13.05,0,0,0,0-19.24,14.77,14.77,0,0,0-10.17-4Z" style="fill:#fff"/></svg>