<svg id="e2b7a3cd-15aa-45df-aa39-ac983d126efb" data-name="Livello 1" xmlns="http://www.w3.org/2000/svg" xmlns:xlink="http://www.w3.org/1999/xlink" viewBox="0 0 512 512"><defs><clipPath id="be476a68-3735-4a3e-bf27-623dfda52f92"><path d="M477.81,151.37H34.19V89.46A15.92,15.92,0,0,1,50,73.48H99.61V96.56a15.84,15.84,0,1,0,31.68,0V73.49H380V96.56a15.85,15.85,0,1,0,31.69,0V73.49H462a15.92,15.92,0,0,1,15.84,16Zm0,310.21a15.92,15.92,0,0,1-15.84,16H50a15.92,15.92,0,0,1-15.84-16V183.32H477.81ZM509.5,89.47C509.5,63,488.18,41.55,462,41.55H411.68V18.48a15.85,15.85,0,1,0-31.69,0V41.55H131.29V18.48a15.84,15.84,0,1,0-31.68,0V41.55H50C23.82,41.55,2.5,63,2.5,89.47v72.95a14.7,14.7,0,0,0,.5,2.46,14.61,14.61,0,0,0-.5,2.47s0,.06,0,.08,0,.07,0,.11v294A47.77,47.77,0,0,0,50,509.5H462c26.21,0,47.53-21.49,47.53-47.92v-294s0-.07,0-.1,0-.06,0-.09a15,15,0,0,0-.5-2.47,14.7,14.7,0,0,0,.5-2.46Z" style="fill:#587898"/></clipPath><clipPath id="f866db9b-a1a9-46b1-a61a-fa05716ed1a2"><circle cx="171.5" cy="265.5" r="19" style="fill:#587898"/></clipPath><clipPath id="b8f0635d-9bd3-4bcb-9925-9d63732f0ac6"><circle cx="246.5" cy="265.5" r="19" style="fill:#587898"/></clipPath><clipPath id="fe38fba1-5107-4675-899f-c4d7291bb65d"><circle cx="340.5" cy="265.5" r="19" style="fill:#587898"/></clipPath><clipPath id="f7f960f1-665e-47b6-b5de-923e54511085"><circle cx="415.5" cy="265.5" r="19" style="fill:#587898"/></clipPath><clipPath id="b334f68d-9558-425f-a184-7b7eb2e3322c"><circle cx="171.5" cy="321.5" r="19" style="fill:#587898"/></clipPath><clipPath id="f0af5a2f-29b5-43b5-a830-a471ad3815f6"><circle cx="246.5" cy="321.5" r="19" style="fill:#587898"/></clipPath><clipPath id="efac38bf-1f6b-4ae2-8336-79cef7965d3a"><circle cx="340.5" cy="321.5" r="19" style="fill:#587898"/></clipPath><clipPath id="ac7af86e-efd0-4336-bfe5-02dfbc58a8b6"><circle cx="415.5" cy="321.5" r="19" style="fill:#587898"/></clipPath><clipPath id="b0c18a58-50ed-4777-96a9-20f51c864e62"><circle cx="96.5" cy="378.5" r="19" style="fill:#587898"/></clipPath><clipPath id="aa9b40a9-8ba8-4c77-be2b-1856bf16cf36"><circle cx="171.5" cy="378.5" r="19" style="fill:#587898"/></clipPath><clipPath id="f1d544b3-1667-4e1c-9b8a-309a3f3fb7b4"><circle cx="246.5" cy="378.5" r="19" style="fill:#587898"/></clipPath><clipPath id="b50d3c56-3239-4de6-afc6-6d360ce59335"><circle cx="340.5" cy="378.5" r="19" style="fill:#587898"/></clipPath><clipPath id="a08a345e-b2ec-4f4c-8527-694358034b51"><circle cx="415.5" cy="378.5" r="19" style="fill:#587898"/></clipPath><clipPath id="fa35ff80-e932-4cf3-8311-148c7ca6ed86"><circle cx="96.5" cy="434.5" r="19" style="fill:#587898"/></clipPath><clipPath id="ed5a99c6-2b75-477d-b0e1-50c09a4634f6"><circle cx="171.5" cy="434.5" r="19" style="fill:#587898"/></clipPath><clipPath id="eee5cba0-32b5-4dd8-bb50-499bdb3dfe26"><circle cx="246.5" cy="434.5" r="19" style="fill:#587898"/></clipPath></defs><title>Tavola disegno 1 copia 8</title><path d="M477.81,151.37H34.19V89.46A15.92,15.92,0,0,1,50,73.48H99.61V96.56a15.84,15.84,0,1,0,31.68,0V73.49H380V96.56a15.85,15.85,0,1,0,31.69,0V73.49H462a15.92,15.92,0,0,1,15.84,16Zm0,310.21a15.92,15.92,0,0,1-15.84,16H50a15.92,15.92,0,0,1-15.84-16V183.32H477.81ZM509.5,89.47C509.5,63,488.18,41.55,462,41.55H411.68V18.48a15.85,15.85,0,1,0-31.69,0V41.55H131.29V18.48a15.84,15.84,0,1,0-31.68,0V41.55H50C23.82,41.55,2.5,63,2.5,89.47v72.95a14.7,14.7,0,0,0,.5,2.46,14.61,14.61,0,0,0-.5,2.47s0,.06,0,.08,0,.07,0,.11v294A47.77,47.77,0,0,0,50,509.5H462c26.21,0,47.53-21.49,47.53-47.92v-294s0-.07,0-.1,0-.06,0-.09a15,15,0,0,0-.5-2.47,14.7,14.7,0,0,0,.5-2.46Z" style="fill:#587898"/><g style="clip-path:url(#be476a68-3735-4a3e-bf27-623dfda52f92)"><rect x="-0.5" y="-0.5" width="512" height="512" style="fill:#587898"/></g><circle cx="171.5" cy="265.5" r="19" style="fill:#587898"/><g style="clip-path:url(#f866db9b-a1a9-46b1-a61a-fa05716ed1a2)"><rect x="-0.5" y="-0.5" width="512" height="512" style="fill:#587898"/></g><circle cx="246.5" cy="265.5" r="19" style="fill:#587898"/><g style="clip-path:url(#b8f0635d-9bd3-4bcb-9925-9d63732f0ac6)"><rect x="-0.5" y="-0.5" width="512" height="512" style="fill:#587898"/></g><circle cx="340.5" cy="265.5" r="19" style="fill:#587898"/><g style="clip-path:url(#fe38fba1-5107-4675-899f-c4d7291bb65d)"><rect x="-0.5" y="-0.5" width="512" height="512" style="fill:#587898"/></g><circle cx="415.5" cy="265.5" r="19" style="fill:#587898"/><g style="clip-path:url(#f7f960f1-665e-47b6-b5de-923e54511085)"><rect x="-0.5" y="-0.5" width="512" height="512" style="fill:#587898"/></g><circle cx="171.5" cy="321.5" r="19" style="fill:#587898"/><g style="clip-path:url(#b334f68d-9558-425f-a184-7b7eb2e3322c)"><rect x="-0.5" y="-0.5" width="512" height="512" style="fill:#587898"/></g><circle cx="246.5" cy="321.5" r="19" style="fill:#587898"/><g style="clip-path:url(#f0af5a2f-29b5-43b5-a830-a471ad3815f6)"><rect x="-0.5" y="-0.5" width="512" height="512" style="fill:#587898"/></g><circle cx="340.5" cy="321.5" r="19" style="fill:#587898"/><g style="clip-path:url(#efac38bf-1f6b-4ae2-8336-79cef7965d3a)"><rect x="-0.5" y="-0.5" width="512" height="512" style="fill:#587898"/></g><circle cx="415.5" cy="321.5" r="19" style="fill:#587898"/><g style="clip-path:url(#ac7af86e-efd0-4336-bfe5-02dfbc58a8b6)"><rect x="-0.5" y="-0.5" width="512" height="512" style="fill:#587898"/></g><circle cx="96.5" cy="378.5" r="19" style="fill:#587898"/><g style="clip-path:url(#b0c18a58-50ed-4777-96a9-20f51c864e62)"><rect x="-0.5" y="-0.5" width="512" height="512" style="fill:#587898"/></g><circle cx="171.5" cy="378.5" r="19" style="fill:#587898"/><g style="clip-path:url(#aa9b40a9-8ba8-4c77-be2b-1856bf16cf36)"><rect x="-0.5" y="-0.5" width="512" height="512" style="fill:#587898"/></g><circle cx="246.5" cy="378.5" r="19" style="fill:#587898"/><g style="clip-path:url(#f1d544b3-1667-4e1c-9b8a-309a3f3fb7b4)"><rect x="-0.5" y="-0.5" width="512" height="512" style="fill:#587898"/></g><circle cx="340.5" cy="378.5" r="19" style="fill:#587898"/><g style="clip-path:url(#b50d3c56-3239-4de6-afc6-6d360ce59335)"><rect x="-0.5" y="-0.5" width="512" height="512" style="fill:#587898"/></g><circle cx="415.5" cy="378.5" r="19" style="fill:#587898"/><g style="clip-path:url(#a08a345e-b2ec-4f4c-8527-694358034b51)"><rect x="-0.5" y="-0.5" width="512" height="512" style="fill:#587898"/></g><circle cx="96.5" cy="434.5" r="19" style="fill:#587898"/><g style="clip-path:url(#fa35ff80-e932-4cf3-8311-148c7ca6ed86)"><rect x="-0.5" y="-0.5" width="512" height="512" style="fill:#587898"/></g><circle cx="171.5" cy="434.5" r="19" style="fill:#587898"/><g style="clip-path:url(#ed5a99c6-2b75-477d-b0e1-50c09a4634f6)"><rect x="-0.5" y="-0.5" width="512" height="512" style="fill:#587898"/></g><circle cx="246.5" cy="434.5" r="19" style="fill:#587898"/><g style="clip-path:url(#eee5cba0-32b5-4dd8-bb50-499bdb3dfe26)"><rect x="-0.5" y="-0.5" width="512" height="512" style="fill:#587898"/></g></svg>