<svg id="ff485b5f-774f-4d5c-9c54-78b22b61f1f1" data-name="Livello 1" xmlns="http://www.w3.org/2000/svg" xmlns:xlink="http://www.w3.org/1999/xlink" viewBox="0 0 512 512"><defs><clipPath id="a9078070-7722-48aa-9d51-fe1844950846"><path d="M260.67,283.57V140c0-8.59-7.45-15.52-16-15.52A13.36,13.36,0,0,0,231.5,141V286.79c-2-.72-1.45.39-1.45,1.22a14.53,14.53,0,0,0,4.14,12.47l82.47,82.86c5.52,5.55,15.72,5.55,21.24,0a15,15,0,0,0,0-21.61Z" style="fill:#587898"/></clipPath></defs><title>Tavola disegno 1 copia 9</title><path d="M448.8,367.78A222.57,222.57,0,0,1,367.3,449C333.17,469,295.78,479,255.59,479a214.57,214.57,0,0,1-86.49-17.75c-27.44-11.92-51.14-27.59-71-47.42S62.54,370,50.74,342.54a218.54,218.54,0,0,1-17.46-86.82q0-60.33,29.66-111.49A222.56,222.56,0,0,1,144.16,63q51.12-30,111.42-30c40.2,0,77.59,10,111.71,30a223,223,0,0,1,81.5,81.26q29.94,51.17,29.94,111.49C478.73,295.94,468.81,333.42,448.8,367.78Zm40.46-210.52c-26.73-62.35-72.15-107.7-135-134.51A249.1,249.1,0,0,0,255.58,2.5a246.4,246.4,0,0,0-98.4,20.25C94.86,49.49,49.24,94.81,22.46,157.26a253.52,253.52,0,0,0,0,197.2c26.78,62.46,72.41,108.05,134.72,134.8a246.43,246.43,0,0,0,98.4,20.24,249.3,249.3,0,0,0,98.69-20.24c62.84-26.82,108.26-72.45,135-134.8a250.29,250.29,0,0,0,0-197.2Z" style="fill:#587898"/><path d="M260.67,283.57V140c0-8.59-7.45-15.52-16-15.52A13.36,13.36,0,0,0,231.5,141V286.79c-2-.72-1.45.39-1.45,1.22a14.53,14.53,0,0,0,4.14,12.47l82.47,82.86c5.52,5.55,15.72,5.55,21.24,0a15,15,0,0,0,0-21.61Z" style="fill:#587898"/></svg>