<?xml version="1.0" encoding="utf-8"?>
<!-- Generator: Adobe Illustrator 23.0.3, SVG Export Plug-In . SVG Version: 6.00 Build 0)  -->
<svg version="1.1" id="Livello_1" xmlns="http://www.w3.org/2000/svg" xmlns:xlink="http://www.w3.org/1999/xlink" x="0px" y="0px"
	 viewBox="0 0 512 512" style="enable-background:new 0 0 512 512;" xml:space="preserve">
<style type="text/css">
	.st0{fill:#343434;}
</style>
<path class="st0" d="M310.6,228.5c1.6,9.3,2.5,18,2.5,26.2c0,30.1-6.3,56.7-18.9,80c-12.6,23.2-30.4,41.4-53.3,54.6
	S191.7,409,162.2,409c-28.4,0-54.8-7.1-79.2-21.3c-24.3-14.2-43.5-33.4-57.4-57.4S4.7,279.9,4.7,251.5s7-54.7,20.9-78.7
	s33.1-43.2,57.4-57.4S133.7,94,162.2,94c41,0,76,13.7,105,41l-42.7,41c-16.4-15.9-37.2-23.8-62.3-23.8c-17.5,0-33.8,4.4-48.8,13.1
	s-26.9,20.8-35.7,36.1s-13.1,32-13.1,50s4.4,34.7,13.1,50s20.6,27.3,35.7,36.1c15,8.7,31.3,13.1,48.8,13.1c19.1,0,35.8-4.1,50-12.3
	c11.5-6.6,20.8-15.9,27.9-27.9c6-9.3,9.8-18.3,11.5-27.1h-89.4v-55H310.6z M462.4,234.3h45.9v45.9h-45.9v45.9h-45.9v-45.9h-45.1
	v-45.9h45.1v-45.9h45.9V234.3z"/>
</svg>
