<?xml version="1.0" encoding="utf-8"?>
<!-- Generator: Adobe Illustrator 23.0.3, SVG Export Plug-In . SVG Version: 6.00 Build 0)  -->
<svg version="1.1" id="Livello_1" xmlns="http://www.w3.org/2000/svg" xmlns:xlink="http://www.w3.org/1999/xlink" x="0px" y="0px"
	 viewBox="0 0 512 512" style="enable-background:new 0 0 512 512;" xml:space="preserve">
<style type="text/css">
	.st0{fill:#343434;}
</style>
<path class="st0" d="M256.2,127.2c23,0,44.3,5.8,64,17.3c19.7,11.5,35.3,27.1,46.8,46.8s17.3,41,17.3,64s-5.8,44.3-17.3,64
	c-11.5,19.7-27.1,35.3-46.8,46.8c-19.7,11.5-41,17.3-64,17.3c-23,0-44.3-5.8-64-17.3s-35.3-27.1-46.8-46.8
	c-11.5-19.7-17.3-41-17.3-64s5.8-44.3,17.3-64s27.1-35.3,46.8-46.8S233.2,127.2,256.2,127.2z M256.2,338.7c23,0,42.7-8.2,59-24.5
	s24.5-36,24.5-59s-8.2-42.7-24.5-59s-36-24.5-59-24.5c-23,0-42.7,8.2-59,24.5s-24.5,36-24.5,59s8.2,42.7,24.5,59
	S233.2,338.7,256.2,338.7z M419.9,121.7c-0.7,8.2-3.9,15.2-9.5,21.2c-5.6,5.9-12.4,8.9-20.6,8.9s-15.2-3-21.2-8.9
	c-5.9-5.9-8.9-13-8.9-21.2s3-15.2,8.9-21.2c5.9-5.9,13-8.9,21.2-8.9s15.2,3,21.2,8.9C416.9,106.4,419.9,113.5,419.9,121.7z
	 M504.5,151.7c0.7,20.8,1.1,55.3,1.1,103.5s-0.6,82.9-1.7,104.1c-1.1,21.2-4.3,39.5-9.5,55.1c-6.7,18.6-16.9,34.7-30.6,48.4
	c-13.7,13.7-29.9,23.9-48.4,30.6c-15.6,5.2-34,8.3-55.1,9.5c-21.2,1.1-55.8,1.7-104.1,1.7s-82.9-0.6-104.1-1.7s-39.5-4.6-55.1-10.6
	c-18.6-5.9-34.7-15.8-48.4-29.5C34.9,449.1,24.7,433,18,414.4c-5.2-15.6-8.3-34-9.5-55.1c-1.1-21.2-1.7-55.8-1.7-104.1
	s0.6-82.9,1.7-104.1s4.3-39.5,9.5-55.1c6.7-18.6,16.9-34.7,30.6-48.4S78.5,23.7,97.1,17c15.6-5.2,34-8.3,55.1-9.5S208,5.9,256.2,5.9
	s82.9,0.6,104.1,1.7c21.2,1.1,39.5,4.3,55.1,9.5c18.6,6.7,34.7,16.9,48.4,30.6s23.9,29.9,30.6,48.4
	C499.7,111.6,503,130.2,504.5,151.7z M451.1,402.2c4.5-12.6,7.4-32.7,8.9-60.1c0.7-16.3,1.1-39.3,1.1-69v-35.6
	c0-30.4-0.4-53.4-1.1-69c-1.5-28.2-4.5-48.2-8.9-60.1c-8.9-23-24.9-39-47.9-47.9c-11.9-4.5-31.9-7.4-60.1-8.9
	c-16.3-0.7-39.3-1.1-69-1.1h-35.6c-29.7,0-52.7,0.4-69,1.1C142,53,121.9,56,109.3,60.4c-23,8.9-39,24.9-47.9,47.9
	c-4.5,11.9-7.4,31.9-8.9,60.1c-0.7,16.3-1.1,39.3-1.1,69v35.6c0,29.7,0.4,52.7,1.1,69c1.5,27.5,4.5,47.5,8.9,60.1
	c9.6,23,25.6,39,47.9,47.9c12.6,4.5,32.7,7.4,60.1,8.9c16.3,0.7,39.3,1.1,69,1.1h35.6c30.4,0,53.4-0.4,69-1.1
	c28.2-1.5,48.2-4.5,60.1-8.9C426.2,440.4,442.2,424.5,451.1,402.2z"/>
</svg>
