<?xml version="1.0" encoding="UTF-8"?>
<svg width="512px" height="512px" viewBox="0 0 512 512" version="1.1" xmlns="http://www.w3.org/2000/svg" xmlns:xlink="http://www.w3.org/1999/xlink">
    <!-- Generator: Sketch 54 (76480) - https://sketchapp.com -->
    <title>Link</title>
    <desc>Created with Sketch.</desc>
    <g id="Link" stroke="none" stroke-width="1" fill="none" fill-rule="evenodd">
        <path d="M378.055644,99 L183.116057,99 C163.846741,99 148.171701,114.677037 148.171701,133.944356 C148.171701,153.211676 163.846741,168.888712 183.116057,168.888712 L293.693978,168.888712 L109.237698,353.342995 C102.634213,359.942486 99,368.716515 99,378.053647 C99,387.390779 102.632216,396.162811 109.233704,402.756312 C115.835192,409.36379 124.607224,413 133.944356,413 C143.277494,413 152.05352,409.365787 158.657005,402.762302 L343.111288,218.306022 L343.111288,328.883943 C343.111288,348.151262 358.788324,363.828299 378.055644,363.828299 C397.322963,363.828299 413,348.151262 413,328.883943 L413,133.944356 C413,114.677037 397.322963,99 378.055644,99 Z" id="Path" fill="#088AF2" fill-rule="nonzero"></path>
    </g>
</svg>