<?xml version="1.0" encoding="UTF-8"?>
<svg width="512px" height="512px" viewBox="0 0 512 512" version="1.1" xmlns="http://www.w3.org/2000/svg" xmlns:xlink="http://www.w3.org/1999/xlink">
    <!-- Generator: Sketch 54 (76480) - https://sketchapp.com -->
    <title>mail</title>
    <desc>Created with Sketch.</desc>
    <g id="mail" stroke="none" stroke-width="1" fill="none" fill-rule="evenodd">
        <path d="M310.617623,253.51313 L413.899482,170.516169 C418.70566,166.600631 419.142586,159.945461 414.774161,155.560888 C410.404079,151.254211 402.977177,150.863072 398.083944,154.77778 L255.655398,269.329414 L227.868769,247.092477 C227.780887,247.014581 227.693833,246.935856 227.693833,246.857959 C227.081972,246.30937 226.470111,245.839505 225.772025,245.369641 L112.702044,154.699055 C107.808812,150.784347 100.38191,151.176315 96.0126561,155.560888 C91.6434025,159.945461 92.0803279,166.600631 96.9743893,170.516169 L201.47997,254.217512 L97.4104856,341.52115 C92.6921892,345.514584 92.4301998,352.170583 96.8865068,356.476431 C99.2460695,358.669132 102.3916,359.843379 105.537131,359.843379 C108.420673,359.843379 111.304214,358.90365 113.575895,357.024192 L219.218145,268.468411 L247.878624,291.40973 C250.150304,293.210463 252.945963,294.071467 255.742452,294.071467 C258.53894,294.071467 261.422481,293.132567 263.607108,291.331834 L293.053556,267.685303 L398.083944,357.102917 C400.355625,359.060271 403.327049,360 406.21059,360 C409.356121,360 412.414599,358.90365 414.774161,356.710949 C419.230468,352.483826 419.055532,345.74993 414.337236,341.755668 L310.617623,253.51313 Z" id="Fill-4" fill="#005192"></path>
        <g id="Rectangle-2" transform="translate(43.000000, 110.000000)"></g>
        <path d="M107,110 L404,110 C439.346224,110 468,138.653776 468,174 L468,348 C468,383.346224 439.346224,412 404,412 L107,412 C71.653776,412 43,383.346224 43,348 L43,174 C43,138.653776 71.653776,110 107,110 Z M107,132 C83.8040405,132 65,150.804041 65,174 L65,348 C65,371.195959 83.8040405,390 107,390 L404,390 C427.195959,390 446,371.195959 446,348 L446,174 C446,150.804041 427.195959,132 404,132 L107,132 Z" id="Rectangle" fill="#005192" fill-rule="nonzero"></path>
    </g>
</svg>