<svg id="b505047d-ba56-44a0-adff-aa937bd0d367" data-name="Livello 1" xmlns="http://www.w3.org/2000/svg" viewBox="0 0 512 512"><title>Tavola disegno 1 copia 3</title><path d="M253.31,34A112,112,0,1,0,365,146C365,84.4,315.08,34,253.31,34Zm-93,281H352.34c87,0,157.66,70.18,157.66,156.5V510H478.09V471.5c0-68.32-56.3-124.83-125.75-124.83H160.28c-69.44,0-125.75,56.51-125.75,124.83V510H2V471.5C2,385.18,73.32,315,160.28,315Zm93-313C332.86,2,398,66.83,398,146c0,79.79-65.14,144-144.69,144C173.14,290,108,225.79,108,146,108,66.83,173.14,2,253.31,2Z"/></svg>