<?xml version="1.0" encoding="UTF-8"?>
<svg width="512px" height="512px" viewBox="0 0 512 512" version="1.1" xmlns="http://www.w3.org/2000/svg" xmlns:xlink="http://www.w3.org/1999/xlink">
    <!-- Generator: Sketch 54 (76480) - https://sketchapp.com -->
    <title>phone</title>
    <desc>Created with Sketch.</desc>
    <g id="phone" stroke="none" stroke-width="1" fill="none" fill-rule="evenodd">
        <path d="M433.385993,344.849201 L386.890425,298.355868 C374.071749,285.537935 353.212801,285.537935 340.394858,298.355868 L319.260909,319.489068 C309.549369,329.199135 293.746757,329.196201 284.039616,319.492735 L192.434482,227.813602 C182.700942,218.080069 182.699475,202.325869 192.434482,192.590869 C195.838618,189.186736 205.613225,179.412136 213.569165,171.45767 C226.331374,158.696203 226.509574,137.90327 213.555965,124.952604 L167.072864,78.6176707 C154.254188,65.7997375 133.395972,65.7997375 120.611763,78.5839374 C111.044689,88.0666706 107.959554,91.1261373 103.66955,95.3780039 C57.4438498,141.60147 57.4438498,216.812136 103.66735,263.034869 L248.812457,408.2488 C295.146691,454.581533 370.140346,454.585933 416.477514,408.2488 L433.385993,391.341801 C446.204669,378.523867 446.204669,357.667134 433.385993,344.849201 L433.385993,344.849201 Z M136.076308,94.1144706 C140.348711,89.8420706 147.300716,89.8413373 151.587052,94.1262039 L198.070153,140.46187 C202.353556,144.744537 202.353556,151.676003 198.070153,155.959403 L190.320281,163.707803 L128.366769,101.75727 L136.076308,94.1144706 Z M264.313669,392.753467 L119.167829,247.537336 C83.4038689,211.774869 81.4385342,155.620603 113.122224,117.50927 L174.896803,179.28087 C158.665191,197.680936 159.341325,225.718469 176.932538,243.308936 L268.534738,334.983668 L268.537672,334.986601 C286.109818,352.558734 314.146639,353.278868 332.570185,337.026001 L394.346231,398.798334 C356.354403,430.426267 300.324028,428.762333 264.313669,392.753467 L264.313669,392.753467 Z M417.888448,375.845001 L410.138576,383.594134 L348.14473,321.601801 L355.893136,313.852668 C360.166272,309.580268 367.119011,309.579535 371.392147,313.852668 L417.887715,360.346734 C422.160851,364.619868 422.160851,371.572601 417.888448,375.845001 L417.888448,375.845001 Z" id="Fill-1" fill="#005192"></path>
    </g>
</svg>