<svg id="a90defe3-ddf6-43f8-a3ad-fdec2c3022a0" data-name="Livello 1" xmlns="http://www.w3.org/2000/svg" viewBox="0 0 512 512"><title>Tavola disegno 1 copia 7</title><path d="M255,294.5c-65.62,0-119-51.82-119-115.5S189.4,63.5,255,63.5,374,115.32,374,179,320.63,294.5,255,294.5Zm1-293c-102.17,0-185,80-185,178.62a171.37,171.37,0,0,0,1.58,22.21C88.39,341.85,244,502.66,244,502.66a28.33,28.33,0,0,0,8,6.18l.13.07,5.18,1.59,5.18-1.59.13-.07a30.53,30.53,0,0,0,8-6.18S424,341.57,439.45,202A172.65,172.65,0,0,0,441,180.09C441,81.47,358.17,1.5,256,1.5Z" style="fill:#088af1"/></svg>