<?xml version="1.0" encoding="utf-8"?>
<!-- Generator: Adobe Illustrator 23.0.3, SVG Export Plug-In . SVG Version: 6.00 Build 0)  -->
<svg version="1.1" id="Livello_1" xmlns="http://www.w3.org/2000/svg" xmlns:xlink="http://www.w3.org/1999/xlink" x="0px" y="0px"
	 viewBox="0 0 512 512" style="enable-background:new 0 0 512 512;" xml:space="preserve">
<g>
	<path d="M263.2,3.4c-138,0-210.9,92.1-210.9,193c0,46.7,25.1,104.9,64.6,123.6c6.4,2.8,9.6,1.6,10.8-4.4l8.8-36.3
		c0.8-3.2,0.4-6-2-9.2c-13.2-15.9-23.9-45.1-23.9-72.6c0-70.6,53.4-138.4,144.3-138.4C333,59.2,388,112.7,388,188.8
		c0,86.5-43.9,145.9-100.5,145.9c-31.1,0-54.6-25.5-47.1-57.4c8.8-37.9,26.3-79,26.3-106.5c0-24.3-13.2-44.7-40.3-44.7
		c-32.3,0-57.8,33.1-57.8,77.4c0,28.3,9.6,47.4,9.6,47.4s-31.5,133.6-37.5,158.7c-6.4,27.5-4,66.2-1.2,91.3l21.9,7.6
		c13.2-21.1,32.3-55.8,39.9-83.3l19.5-76.2c10.8,19.9,41.1,36.7,73.4,36.7c96.1,0,165.5-88.5,165.5-198.2
		C459.8,82,373.6,3.4,263.2,3.4z"/>
</g>
</svg>
