<?xml version="1.0" encoding="utf-8"?>
<!-- Generator: Adobe Illustrator 23.0.3, SVG Export Plug-In . SVG Version: 6.00 Build 0)  -->
<svg version="1.1" id="Livello_1" xmlns="http://www.w3.org/2000/svg" xmlns:xlink="http://www.w3.org/1999/xlink" x="0px" y="0px"
	 viewBox="0 0 512 512" style="enable-background:new 0 0 512 512;" xml:space="preserve">
<style type="text/css">
	.st0{fill:#343434;}
</style>
<path class="st0" d="M151.8,250.5c0,5.2-2,9.7-6,13.7s-8.7,6-14.2,6c-5.4,0-10.3-2-14.6-6c-4.3-4-6.4-8.7-6.4-14.2
	c0-5.4,2.1-10.2,6.4-14.2c4.3-4,9.2-6,14.6-6c5.4,0,10.2,2,14.2,6C149.8,239.9,151.8,244.8,151.8,250.5z M379.6,229.9
	c5.7,0,10.6,2,14.6,6c4,4,6,8.7,6,14.2c0,5.4-2,10.2-6,14.2s-8.9,6-14.6,6s-10.6-2-14.6-6c-4-4-6-8.7-6-14.2c0-5.4,2-10.2,6-14.2
	C369,231.9,373.8,229.9,379.6,229.9z M456.9,349.3c-17.8,13.7-37.5,22.2-59.3,25.4c-21.8,3.2-42.8,0.6-63.2-7.7s-37.7-21.3-52-39.1
	l-26.6,40.4L230,328.7c-13.7,17.2-30.5,29.6-50.3,37.4c-19.8,7.7-40.4,10.3-61.9,7.7c-21.5-2.6-41.1-10.3-58.9-23.2
	s-30.9-29.5-39.5-49.8S7.7,259.4,10,237.6s10-41.5,23.2-59.3c-5.2-17.8-13.2-34.4-24.1-49.8h77.3c25.8-15.5,53-27.2,81.6-35.2
	S226,81.5,255.8,82c29.2-0.6,57.9,3.2,85.9,11.2c28.1,8,54.7,19.8,79.9,35.2h82.5c-10.9,14.9-19.2,31.2-24.9,49
	c13.2,17.8,21.1,37.4,23.6,58.9c2.6,21.5-0.1,42.3-8.2,62.3S474.1,335.6,456.9,349.3z M231.7,251.3c0-18.3-4.4-34.9-13.3-49.8
	c-8.9-14.9-20.8-26.8-35.7-35.7c-14.9-8.9-31.4-13.3-49.4-13.3s-34.7,4.4-49.8,13.3c-15.2,8.9-27.2,20.9-36.1,36.1
	s-13.3,31.7-13.3,49.4s4.4,34.2,13.3,49.4c8.9,15.2,20.9,27.2,36.1,36.1c15.2,8.9,31.8,13.3,49.8,13.3s34.5-4.4,49.4-13.3
	c14.9-8.9,26.8-20.9,35.7-36.1C227.3,285.6,231.7,269.1,231.7,251.3z M256.7,241.9c1.7-20.6,8-39.5,18.9-56.7
	c10.9-17.2,25.2-30.9,43-41.2s37-15.8,57.6-16.3c-38.4-16.6-78.5-24.8-120.3-24.5s-81.9,8.5-120.3,24.5c21.2,0.6,40.7,5.9,58.4,15.9
	c17.8,10,32.2,23.8,43.4,41.2S254.9,221.3,256.7,241.9z M473.2,217.8c-6.3-17.2-16.2-31.4-29.6-42.5c-13.5-11.2-28.9-18.2-46.4-21.1
	c-17.5-2.9-34.5-1.3-51.1,4.7s-30.5,15.9-41.7,29.6S286,217.8,282.9,235s-1.6,34.1,4.7,50.7c6.3,17.2,16.2,31.2,29.6,42.1
	c13.5,10.9,28.8,17.9,46,21.1c17.2,3.2,34.2,1.6,51.1-4.7c16.9-6.3,30.9-16.2,42.1-29.6c11.2-13.5,18.2-28.8,21.1-46
	C480.4,251.3,479,234.4,473.2,217.8z M193.1,250.5c0,16.6-6,30.9-18,43c-12,12-26.5,18-43.4,18s-31.4-6-43.4-18s-18-26.5-18-43.4
	c0-16.9,6-31.4,18-43.4s26.5-18,43.4-18s31.4,6,43.4,18C187.1,218.7,193.1,233.3,193.1,250.5z M171.6,250.5v-0.9
	c0-10.9-3.9-20.2-11.6-27.9s-17.2-11.6-28.4-11.6c-11.2,0-20.6,3.9-28.4,11.6s-11.6,17.2-11.6,28.4c0,11.2,3.9,20.6,11.6,28.4
	s17.2,11.6,28.4,11.6c11.2,0,20.6-3.9,28.4-11.6S171.6,261.4,171.6,250.5z M441.4,250.5c0,16.6-6,30.9-18,43s-26.5,18-43.4,18
	s-31.4-6-43.4-18s-18-26.5-18-43.4c0-16.9,6-31.4,18-43.4s26.5-18,43.4-18s31.2,6,43,18C434.7,218.7,440.9,233.3,441.4,250.5z
	 M419.9,250.5c0-11.5-3.9-21.1-11.6-28.8s-17.2-11.6-28.4-11.6s-20.6,3.9-28.4,11.6c-7.7,7.7-11.6,17.2-11.6,28.4
	c0,11.2,3.9,20.6,11.6,28.4c7.7,7.7,17.2,11.6,28.4,11.6s20.6-3.9,28.4-11.6S419.9,261.4,419.9,250.5z"/>
</svg>
