<?xml version="1.0" encoding="utf-8"?>
<!-- Generator: Adobe Illustrator 23.0.3, SVG Export Plug-In . SVG Version: 6.00 Build 0)  -->
<svg version="1.1" id="Livello_1" xmlns="http://www.w3.org/2000/svg" xmlns:xlink="http://www.w3.org/1999/xlink" x="0px" y="0px"
	 viewBox="0 0 512 512" style="enable-background:new 0 0 512 512;" xml:space="preserve">
<path class="st0" d="M453.4,154.9c0.7,2.6,1,6.8,1,12.7c0,46.9-11.4,92.1-34.2,135.7c-23.4,46.2-56.3,83-98.6,110.4
	c-46.2,30.6-99.3,45.9-159.2,45.9c-57.3,0-109.7-15.3-157.2-45.9c7.2,0.7,15.3,1,24.4,1c47.5,0,90.2-14.6,127.9-43.9
	c-22.8,0-42.8-6.7-60.1-20c-17.3-13.3-29.1-30.1-35.6-50.3c6.5,0.7,12.7,1,18.6,1c9.1,0,18.2-1,27.3-2.9
	c-23.4-5.2-43-17.3-58.6-36.1S25.7,222,25.7,197.9v-2c14.3,8.5,29.6,13,45.9,13.7c-13.7-9.8-24.7-22.1-33.2-37.1
	c-8.5-15-12.7-31.4-12.7-49.3s4.9-35,14.6-51.3c25.4,31.9,56.5,57.3,93.3,76.2s76,29.3,117.7,31.2c-1.3-7.8-2-15.6-2-23.4
	c0-18.2,4.6-35.3,13.7-51.3c9.1-16,21.5-28.5,37.1-37.6s32.6-13.7,50.8-13.7c15,0,28.8,2.9,41.5,8.8c12.7,5.9,23.9,13.7,33.7,23.4
	c23.4-4.6,45.2-12.7,65.4-24.4c-7.8,24.1-22.8,43-44.9,56.6c19.5-2.6,39.1-8.1,58.6-16.6C490.8,122.1,473.6,140,453.4,154.9z"/>
</svg>
